<?xml version="1.0" encoding="utf-8"?>
<!-- Generator: Adobe Illustrator 23.0.2, SVG Export Plug-In . SVG Version: 6.00 Build 0)  -->
<svg version="1.1" id="Layer_1" xmlns="http://www.w3.org/2000/svg" xmlns:xlink="http://www.w3.org/1999/xlink" x="0px" y="0px"
	 viewBox="0 0 16 16" style="enable-background:new 0 0 16 16;" xml:space="preserve">
<style type="text/css">
	.st0{fill:#28285B;}
	.st1{fill:#3B73AF;}
</style>
<g>
	<path class="st0" d="M8,8"/>
	<path class="st0" d="M8,8"/>
	<path class="st0" d="M8,8"/>
	<g>
		<path class="st1" d="M14.5,3h-6L7.6,0.3c0-0.1-0.2-0.2-0.3-0.2H1.6c-0.8,0-1.5,0.7-1.5,1.5v9.9c0,0.8,0.7,1.5,1.5,1.5h6l0.9,2.7
			c0,0.1,0.2,0.2,0.3,0.2h5.7c0.8,0,1.5-0.7,1.5-1.5V4.5C16,3.7,15.3,3,14.5,3z M0.7,11.5V1.6c0-0.5,0.4-0.9,0.9-0.9h5.4l3.8,11.6
			H1.6C1.1,12.3,0.7,12,0.7,11.5z M12.9,7.5c-0.2,0.4-0.5,0.9-1,1.6c-0.1-0.2-0.3-0.4-0.4-0.5c-0.3-0.4-0.5-0.8-0.6-1.1L12.9,7.5
			L12.9,7.5z M10.2,7.5c0.1,0.3,0.3,0.8,0.7,1.4c0.1,0.2,0.3,0.4,0.5,0.7c-0.2,0.2-0.4,0.4-0.6,0.6L10,7.5L10.2,7.5L10.2,7.5z
			 M8.3,13h2.3l-1.7,2L8.3,13z M15.3,14.4c0,0.5-0.4,0.9-0.9,0.9h-5l2-2.4c0.1-0.1,0.1-0.1,0.1-0.2c0,0,0-0.1,0-0.1l-0.5-1.6
			c0.3-0.3,0.6-0.5,0.8-0.8c0.5,0.6,1.3,1.2,2.2,1.8c0.1,0,0.1,0,0.2,0c0.1,0,0.2-0.1,0.3-0.2c0.1-0.2,0-0.4-0.1-0.4
			c-0.9-0.5-1.6-1.2-2.1-1.7c0.7-0.9,1.1-1.7,1.2-2.1h1c0.2,0,0.3-0.1,0.3-0.3s-0.1-0.3-0.3-0.3h-2.3V6.3c0-0.2-0.1-0.3-0.3-0.3
			s-0.3,0.1-0.3,0.3v0.5H9.8L8.7,3.7h5.8c0.5,0,0.9,0.4,0.9,0.9L15.3,14.4L15.3,14.4z"/>
		<path class="st1" d="M5.3,3.9H4.2c-0.9,0-1.7,0.8-1.7,1.7v1.3V7v2.3h0.7v-2h3.1v2H7V7V6.9V5.6C7,4.6,6.2,3.9,5.3,3.9z M3.2,6.6v-1
			c0-0.6,0.5-1,1-1h1.1c0.6,0,1,0.5,1,1v1H3.2z"/>
	</g>
</g>
</svg>
